<svg xmlns="http://www.w3.org/2000/svg" width="24" height="24" viewBox="0 0 24 24"><g fill="none" fill-rule="evenodd"><path fill="#009591" fill-rule="nonzero" d="M13.8740851,2.65739357 L20.8740851,8.25739357 C21.5857308,8.82671013 22,9.68864883 22,10.6 L22,19.1581255 C22,20.8149797 20.6568542,22.1581255 19,22.1581255 L13,22.1581255 L13,18.1581255 C13,17.6058407 12.5522847,17.1581255 12,17.1581255 C11.4477153,17.1581255 11,17.6058407 11,18.1581255 L11,18.1581255 L11,22.1581255 L11,22.1581255 L5,22.1581255 C3.34314575,22.1581255 2,20.8149797 2,19.1581255 L2,10.6 C2,9.68864883 2.41426916,8.82671013 3.12591486,8.25739357 L10.1259149,2.65739357 C11.2215708,1.78086881 12.7784292,1.78086881 13.8740851,2.65739357 Z"/><rect width="24" height="24"/></g></svg>