<svg xmlns="http://www.w3.org/2000/svg" width="24" height="24" viewBox="0 0 24 24"><g fill="none" fill-rule="evenodd"><path fill="#009591" d="M22,10 L22,18 C22,19.6568542 20.6568542,21 19,21 L5,21 C3.34314575,21 2,19.6568542 2,18 L2,10 L22,10 Z M8,16 L6,16 C5.44771525,16 5,16.4477153 5,17 C5,17.5522847 5.44771525,18 6,18 L6,18 L8,18 C8.55228475,18 9,17.5522847 9,17 C9,16.4477153 8.55228475,16 8,16 L8,16 Z M19,4 C20.6568542,4 22,5.34314575 22,7 L22,8 L2,8 L2,7 C2,5.34314575 3.34314575,4 5,4 L19,4 Z"/><rect width="24" height="24"/></g></svg>