<svg xmlns="http://www.w3.org/2000/svg" xmlns:xlink="http://www.w3.org/1999/xlink" width="24" height="24" viewBox="0 0 24 24"><defs><path id="a" d="M3,0 L17,0 C18.6568542,0 20,1.34314575 20,3 L20,14 C20,15.6568542 18.6568542,17 17,17 L3,17 C1.34314575,17 0,15.6568542 0,14 L0,3 C0,1.34314575 1.34314575,0 3,0 Z"/></defs><g fill="none" fill-rule="evenodd"><path stroke="#009591" stroke-width="1.5" d="M19.5,0.75 C19.9832492,0.75 20.4207492,0.945875422 20.7374369,1.26256313 C21.0541246,1.57925084 21.25,2.01675084 21.25,2.5 L21.25,2.5 L21.25,4 L1,4.25 L0.75,2.5 C0.75,2.01675084 0.945875422,1.57925084 1.26256313,1.26256313 C1.57925084,0.945875422 2.01675084,0.75 2.5,0.75 L2.5,0.75 Z" transform="translate(1 4)"/><g transform="translate(2 6)"><mask id="b" fill="#fff"><use xlink:href="#a"/></mask><use xlink:href="#a" fill="#009591"/><polygon fill="#F3F8F8" points="0 4 20 4 20 6 0 6" mask="url(#b)"/><path fill="#F3F8F8" d="M4,12 L6,12 C6.55228475,12 7,12.4477153 7,13 C7,13.5522847 6.55228475,14 6,14 L4,14 C3.44771525,14 3,13.5522847 3,13 C3,12.4477153 3.44771525,12 4,12 Z" mask="url(#b)"/></g></g></svg>