<svg xmlns="http://www.w3.org/2000/svg" width="24" height="24" viewBox="0 0 24 24"><g fill="none" fill-rule="evenodd"><path fill="#009591" d="M7,8 L22,8 C23.1045695,8 24,8.8954305 24,10 L24,19 C24,20.6568542 22.6568542,22 21,22 L8,22 C6.34314575,22 5,20.6568542 5,19 L5,10 C5,8.8954305 5.8954305,8 7,8 Z"/><path fill="#009591" d="M17,2 C18.1045695,2 19,2.8954305 19,4 L19,6 L5,6 C3.9456382,6 3.08183488,6.81587779 3.00548574,7.85073766 L3,8 L3,16 C1.34314575,16 2.02906125e-16,14.6568542 0,13 L0,4 C-1.3527075e-16,2.8954305 0.8954305,2 2,2 L17,2 Z"/><g transform="translate(11 11.5)"><line x1="5.5" x2="1.5" y1="1.5" y2="5.5" stroke="#F3F8F8" stroke-linecap="round" stroke-width="2"/><circle cx="1.25" cy="1.25" r="1.25" fill="#F3F8F8"/><circle cx="5.75" cy="5.75" r="1.25" fill="#F3F8F8"/></g><rect width="24" height="24"/></g></svg>