<svg xmlns="http://www.w3.org/2000/svg" width="24" height="24" viewBox="0 0 24 24"><g fill="none" fill-rule="evenodd"><path fill="#009591" d="M22,8 C23.1045695,8 24,8.8954305 24,10 L24,19 C24,20.6568542 22.6568542,22 21,22 L8,22 C6.34314575,22 5,20.6568542 5,19 L5,10 C5,8.8954305 5.8954305,8 7,8 L22,8 Z M16.75,16 C16.0596441,16 15.5,16.5596441 15.5,17.25 C15.5,17.9403559 16.0596441,18.5 16.75,18.5 C17.4403559,18.5 18,17.9403559 18,17.25 C18,16.5596441 17.4403559,16 16.75,16 Z M17.2071068,12.2928932 C16.8165825,11.9023689 16.1834175,11.9023689 15.7928932,12.2928932 L15.7928932,12.2928932 L11.7928932,16.2928932 L11.7097046,16.3871006 C11.4046797,16.7793918 11.4324093,17.3466228 11.7928932,17.7071068 C12.1834175,18.0976311 12.8165825,18.0976311 13.2071068,17.7071068 L13.2071068,17.7071068 L17.2071068,13.7071068 L17.2902954,13.6128994 C17.5953203,13.2206082 17.5675907,12.6533772 17.2071068,12.2928932 Z M12.25,11.5 C11.5596441,11.5 11,12.0596441 11,12.75 C11,13.4403559 11.5596441,14 12.25,14 C12.9403559,14 13.5,13.4403559 13.5,12.75 C13.5,12.0596441 12.9403559,11.5 12.25,11.5 Z"/><path fill="#009591" d="M17,2 C18.1045695,2 19,2.8954305 19,4 L19,6 L5,6 C3.9456382,6 3.08183488,6.81587779 3.00548574,7.85073766 L3,8 L3,16 C1.34314575,16 2.02906125e-16,14.6568542 0,13 L0,4 C-1.3527075e-16,2.8954305 0.8954305,2 2,2 L17,2 Z"/><rect width="24" height="24"/></g></svg>